# xmcd
#
# Track frame offsets: 
#        150
#        17510
#        33336
#        47388
#        61269
#        76104
#        87470
#        104503
#        120074
#        135549
#
# Disc length: 2050 seconds
#
# Revision: 2
# Processed by: cddbd v1.4PL0 Copyright (c) Steve Scherf et al.
# Submitted via: ExactAudioCopy v0.90b3
#
DISCID=6a08000a
DTITLE=Highway 101 - Latest and Greatest
DYEAR=1900
DGENRE=Country
TTITLE0=If I'm Over You
TTITLE1=I Just Don't Love The Man
TTITLE2=24 Hours
TTITLE3=Whiskey, If You Were A Woman
TTITLE4=Somewhere Tonight
TTITLE5=Cry, Cry, Cry
TTITLE6=(Do You Love Me) Just Say Yes
TTITLE7=Honky Tonk Heart
TTITLE8=Who's Lonely Now
TTITLE9=This Side Of Goodbye
EXTD=\nYEAR:       ID3G:   2
EXTT0=
EXTT1=
EXTT2=
EXTT3=
EXTT4=
EXTT5=
EXTT6=
EXTT7=
EXTT8=
EXTT9=
PLAYORDER=
